<svg xmlns="http://www.w3.org/2000/svg" version="1.1" xmlns:xlink="http://www.w3.org/1999/xlink" xmlns:svgjs="http://svgjs.com/svgjs" width="1440" height="560" preserveAspectRatio="none" viewBox="0 0 1440 560"><g mask="url(&quot;#SvgjsMask1001&quot;)" fill="none"><rect width="1440" height="560" x="0" y="0" fill="rgba(68, 68, 68, 1)"></rect><path d="M0,634.841C116.566,624.054,204.659,534.941,301.876,469.728C397.027,405.901,515.707,361.473,563.061,257.141C610.39,152.865,585.015,30.129,551.035,-79.227C520.441,-177.687,434.103,-241.673,380.666,-329.849C313.016,-441.477,321.194,-630.621,195.515,-665.865C69.276,-701.266,-15.243,-517.007,-139.7,-475.775C-257.399,-436.782,-407.466,-515.268,-501.83,-434.838C-595.502,-354.997,-574.844,-206.9,-597.162,-85.859C-620.484,40.628,-685.129,171.566,-635.519,290.232C-585.656,409.502,-453.694,467.511,-340.053,529.133C-233.548,586.885,-120.64,646.005,0,634.841" fill="#363636"></path><path d="M1440 1227.4940000000001C1564.519 1212.641 1600.087 1040.896 1703.04 969.298 1800.201 901.7280000000001 1965.315 929.871 2019.359 824.5840000000001 2072.946 720.188 1978.408 600.613 1950.833 486.553 1926.234 384.803 1938.594 266.3 1866.124 190.76100000000002 1794.291 115.887 1678.184 115.29899999999998 1576.22 96.07799999999997 1483.87 78.66899999999998 1390.595 58.185 1300.261 84.09199999999998 1209.609 110.08999999999997 1141.489 177.457 1071.618 240.79500000000002 992.625 312.402 885.773 372.69100000000003 866.262 477.509 846.682 582.697 926.387 676.951 972.454 773.521 1017.7049999999999 868.379 1057.882 964.046 1133.284 1037.259 1221.382 1122.799 1318.07 1242.038 1440 1227.4940000000001" fill="#525252"></path></g><defs><mask id="SvgjsMask1001"><rect width="1440" height="560" fill="#ffffff"></rect></mask></defs></svg>